<svg width="161" height="107" viewBox="0 0 161 107" fill="none" xmlns="http://www.w3.org/2000/svg">
<path fill-rule="evenodd" clip-rule="evenodd" d="M71.1647 21.9399C70.7357 21.6718 70.3603 21.4573 70.0922 21.1891C69.8777 20.9746 70.2531 20.7601 70.3603 20.5456C71.8083 18.4005 73.578 16.5235 75.1869 14.5392C75.6695 13.9493 76.1522 13.3058 76.6348 12.6622C76.7421 12.5014 76.9566 12.2868 77.1711 12.3941C77.4393 12.555 77.2247 12.8231 77.1175 12.984C75.1332 15.6118 73.6853 18.615 71.701 21.2428C71.5938 21.5109 71.3793 21.7254 71.1647 21.9399Z" fill="#F7EA28"/>
<path fill-rule="evenodd" clip-rule="evenodd" d="M71.4866 22.3153C73.0418 20.4383 74.168 18.4541 75.4014 16.5234C76.2595 17.7033 76.2595 19.044 75.3478 20.1702C74.8652 20.7064 74.5434 21.35 74.4898 22.0472C74.4361 22.3153 74.3825 22.3689 74.1144 22.3689C73.2563 22.3153 72.4519 22.3153 71.4866 22.3153Z" fill="#F7EA28"/>
<path fill-rule="evenodd" clip-rule="evenodd" d="M70.3065 20.0093C69.5021 19.044 69.4485 17.7569 70.092 16.738C70.7355 15.6654 72.2908 14.861 73.9532 15.3973C72.7198 16.9525 71.4327 18.4004 70.3065 20.0093Z" fill="#F7EA28"/>
<path fill-rule="evenodd" clip-rule="evenodd" d="M66.9817 25.9085C67.3035 24.7823 67.7861 23.5488 68.8587 22.7444C69.2877 22.4227 69.5022 23.0126 69.824 23.1735C70.0921 23.2807 70.0921 23.4416 69.9849 23.7097C69.5558 24.9432 68.6978 25.8012 67.6789 26.552C67.2498 26.7665 66.9817 26.6057 66.9817 25.9085Z" fill="#F7EA28"/>
<path fill-rule="evenodd" clip-rule="evenodd" d="M70.3604 23.0123C70.1995 23.0123 69.2878 22.3151 69.2878 22.2615C69.4487 21.9933 69.556 21.6179 69.8778 21.457C69.9314 21.4034 70.9503 22.1006 70.8967 22.2078C70.7358 22.5296 70.5749 22.7977 70.3604 23.0123Z" fill="#F7EA28"/>
<path fill-rule="evenodd" clip-rule="evenodd" d="M71.701 23.173C71.3792 22.9049 71.3256 22.6903 71.8083 22.6903C72.5054 22.6367 73.2026 22.6903 73.8998 22.6903C74.3288 22.6903 74.2752 22.9049 74.0607 23.173C73.2562 23.4948 72.4518 23.4411 71.701 23.173Z" fill="#F7EA28"/>
<path fill-rule="evenodd" clip-rule="evenodd" d="M74.0606 23.3344C74.3288 23.6562 74.2215 23.8171 73.8461 23.8171C73.149 23.8171 72.5054 23.8707 71.8082 23.8171C71.3792 23.8171 71.3256 23.6026 71.701 23.3344C72.4518 23.2272 73.2562 23.1736 74.0606 23.3344Z" fill="#F7EA28"/>
<path fill-rule="evenodd" clip-rule="evenodd" d="M68.4833 12.2329C69.1268 13.091 69.7704 13.949 70.4676 14.7534C70.4139 14.8071 70.3067 14.8607 70.253 14.9143C69.6095 14.0563 68.966 13.1982 68.2688 12.3938C68.3761 12.3402 68.4297 12.2865 68.4833 12.2329Z" fill="#F7EA28"/>
<path fill-rule="evenodd" clip-rule="evenodd" d="M72.8808 14.1637C72.7735 13.1447 72.6663 12.0722 72.8272 11.0532C72.988 12.1258 72.988 13.1447 72.8808 14.1637Z" fill="#F7EA28"/>
<path fill-rule="evenodd" clip-rule="evenodd" d="M72.8271 23.9779C73.0416 24.0315 73.5243 23.817 73.4707 24.2997C73.4707 24.6215 73.0416 24.5142 72.8271 24.5142C72.6126 24.5142 72.1836 24.6215 72.1836 24.2997C72.1836 23.817 72.6126 24.0315 72.8271 23.9779Z" fill="#F7EA28"/>
<path fill-rule="evenodd" clip-rule="evenodd" d="M68.1615 19.3654C67.5179 19.6872 66.8208 20.0089 66.1236 20.1698C66.07 20.1162 66.07 20.0089 66.0164 19.9553C66.6599 19.6872 67.3034 19.419 67.947 19.1509C68.1615 19.1509 68.1615 19.2581 68.1615 19.3654Z" fill="#F7EA28"/>
<path fill-rule="evenodd" clip-rule="evenodd" d="M77.6537 19.2049C78.2973 19.473 78.9408 19.7412 79.5843 20.0093C79.5307 20.0629 79.5307 20.1702 79.4771 20.2238C78.7799 20.0093 78.1364 19.6875 77.4392 19.4194C77.4392 19.2585 77.4928 19.1512 77.6537 19.2049Z" fill="#F7EA28"/>
<path fill-rule="evenodd" clip-rule="evenodd" d="M78.351 16.2016C77.8147 16.3625 77.2784 16.6306 76.6885 16.6306C77.1175 16.2552 77.6002 16.2016 78.0828 16.0407C78.2437 16.0407 78.351 15.9335 78.351 16.2016Z" fill="#F7EA28"/>
<path fill-rule="evenodd" clip-rule="evenodd" d="M67.6251 16.3628C67.1425 16.2555 66.7135 16.0946 66.2844 15.8801C66.2844 15.7729 66.3917 15.7729 66.4453 15.7192C66.9816 15.8265 67.4642 15.9874 67.9469 16.2019C67.8933 16.3628 67.7324 16.3091 67.6251 16.3628Z" fill="#F7EA28"/>
<path fill-rule="evenodd" clip-rule="evenodd" d="M67.6252 16.3625C67.6789 16.2553 67.7861 16.2553 67.8934 16.2017C68.2688 16.2553 68.5906 16.3625 69.0732 16.6843C68.4297 16.7379 68.0543 16.4698 67.6252 16.3625Z" fill="#F7EA28"/>
<path fill-rule="evenodd" clip-rule="evenodd" d="M74.0606 23.3343C73.2562 23.3343 72.5054 23.3343 71.7009 23.3343C71.7009 23.2807 71.7009 23.2271 71.7009 23.2271C72.4517 23.2271 73.2562 23.2271 74.0606 23.2271C74.0606 23.2271 74.0606 23.2807 74.0606 23.3343Z" fill="#F7EA28"/>
<path fill-rule="evenodd" clip-rule="evenodd" d="M78.3508 16.2018C78.2972 16.0946 78.1899 16.0946 78.0291 16.0409C78.3508 15.88 78.7262 15.7192 79.1016 15.6655C79.1552 15.7192 79.2625 15.7192 79.2625 15.8264C79.048 16.0409 78.7262 16.1482 78.3508 16.2018Z" fill="#F7EA28"/>
<path fill-rule="evenodd" clip-rule="evenodd" d="M77.6536 19.2047C77.6 19.2583 77.5464 19.3119 77.4927 19.3656C77.2782 19.3119 77.0637 19.2583 76.7419 18.9902C77.171 18.8829 77.3855 19.0974 77.6536 19.2047Z" fill="#F7EA28"/>
<path fill-rule="evenodd" clip-rule="evenodd" d="M68.1616 19.3654C68.108 19.3118 68.0544 19.2582 68.0007 19.2045C68.2152 19.0437 68.4834 18.9364 68.8052 18.99C68.6443 19.3118 68.3761 19.3118 68.1616 19.3654Z" fill="#F7EA28"/>
<path fill-rule="evenodd" clip-rule="evenodd" d="M79.3162 15.8799C79.2625 15.8263 79.2089 15.7726 79.1553 15.719C79.3162 15.6654 79.5307 15.5045 79.5843 15.6654C79.6915 15.8799 79.4234 15.8263 79.3162 15.8799Z" fill="#F7EA28"/>
<path fill-rule="evenodd" clip-rule="evenodd" d="M66.4456 15.7193C66.392 15.7729 66.3383 15.8265 66.2847 15.8801C66.1774 15.8265 65.9093 15.8801 66.0166 15.7193C66.0702 15.5047 66.2847 15.6656 66.4456 15.7193Z" fill="#F7EA28"/>
<path fill-rule="evenodd" clip-rule="evenodd" d="M72.5054 100.291C70.682 100.237 68.8586 100.022 67.1425 99.3788C66.6063 99.1643 66.07 98.8962 65.641 98.5208C65.1583 98.0381 65.051 97.5018 65.3192 96.9119C65.5337 96.3757 66.1236 96.1075 66.8208 96.2148C67.4643 96.322 68.0542 96.6974 68.6441 96.9656C70.3066 97.7164 71.9691 98.0381 73.7925 97.8236C75.9912 97.5555 77.7073 96.1075 78.0827 94.1769C78.4045 92.6753 77.9218 91.6027 76.5811 90.7983C75.1868 89.9939 73.6852 89.6185 72.1836 89.1895C70.7893 88.7604 69.3413 88.3314 68.0542 87.5806C64.9974 85.8109 64.5684 82.325 67.0889 79.8581C69.1804 77.8203 71.8082 77.3376 74.5969 77.5521C75.884 77.6594 77.1174 77.8739 78.2972 78.4102C78.7799 78.6247 79.2089 78.8392 79.5843 79.2146C79.9597 79.59 80.1206 80.019 79.9061 80.5017C79.6916 80.9843 79.3162 81.2525 78.7799 81.3061C78.0291 81.4134 77.4392 81.0916 76.8493 80.7698C75.1868 79.8581 73.4171 79.6436 71.5937 80.1263C70.8429 80.3408 70.1457 80.7162 69.6631 81.3597C68.6978 82.5932 68.9123 84.1484 70.1457 85.1137C71.111 85.8109 72.1836 86.1863 73.3098 86.508C74.5432 86.9371 75.7767 87.3125 77.0638 87.6879C77.3855 87.7951 77.6537 87.956 77.9755 88.0633C80.0133 88.9213 81.5686 90.2084 81.7831 92.568C81.9976 95.0349 80.9786 97.0192 78.9944 98.5208C76.9565 99.8615 74.8114 100.291 72.5054 100.291Z" fill="#F7EA28"/>
<path fill-rule="evenodd" clip-rule="evenodd" d="M140.774 88.8679C140.774 85.7038 140.774 82.5398 140.774 79.3757C140.774 78.1422 141.257 77.606 142.437 77.606C145.655 77.606 148.872 77.606 152.09 77.606C153.162 77.606 153.699 78.0886 153.699 78.9467C153.699 79.5366 153.377 79.912 152.841 80.1265C152.465 80.2338 152.09 80.2337 151.715 80.2337C149.355 80.2337 146.995 80.2337 144.636 80.2337C144.207 80.2337 144.099 80.341 144.099 80.77C144.099 82.8615 144.099 84.953 144.099 87.0445C144.099 87.4736 144.207 87.5808 144.636 87.5808C146.834 87.5808 148.979 87.5808 151.178 87.5808C152.412 87.5808 153.002 88.0098 153.002 88.8679C153.002 89.726 152.358 90.155 151.125 90.155C148.979 90.155 146.781 90.155 144.636 90.155C144.153 90.155 144.046 90.3159 144.046 90.7449C144.046 92.8364 144.099 94.8743 144.046 96.9658C144.046 97.5021 144.207 97.5557 144.689 97.5557C147.049 97.5021 149.355 97.5557 151.715 97.5557C152.09 97.5557 152.465 97.5557 152.787 97.6629C153.323 97.8238 153.645 98.1992 153.645 98.8428C153.645 99.4327 153.377 99.8617 152.841 100.023C152.573 100.13 152.251 100.183 151.929 100.183C148.819 100.183 145.708 100.183 142.598 100.183C141.257 100.183 140.721 99.7008 140.721 98.3601C140.774 95.196 140.774 92.032 140.774 88.8679Z" fill="#F7EA28"/>
<path fill-rule="evenodd" clip-rule="evenodd" d="M123.989 88.8679C123.989 85.7038 123.989 82.5398 123.989 79.3757C123.989 78.1422 124.525 77.606 125.758 77.606C128.922 77.606 132.086 77.606 135.25 77.606C136.377 77.606 136.913 78.0886 136.913 78.9467C136.913 79.5366 136.591 79.912 136.109 80.0729C135.787 80.1801 135.358 80.2337 135.036 80.2337C132.676 80.2337 130.317 80.2337 127.957 80.2337C127.528 80.2337 127.367 80.2874 127.367 80.77C127.421 82.8615 127.367 84.953 127.367 87.0445C127.367 87.4736 127.474 87.5808 127.903 87.5808C130.102 87.5808 132.247 87.5808 134.446 87.5808C135.679 87.5808 136.269 88.0635 136.269 88.8679C136.269 89.726 135.626 90.155 134.5 90.155C132.355 90.155 130.156 90.155 128.011 90.155C127.582 90.155 127.367 90.2086 127.367 90.7449C127.421 92.7828 127.421 94.8743 127.367 96.9121C127.367 97.3948 127.474 97.5557 128.011 97.5557C130.37 97.5021 132.676 97.5557 135.036 97.5557C135.411 97.5557 135.84 97.5557 136.216 97.7166C136.752 97.9311 137.02 98.3065 137.02 98.8428C137.02 99.4327 136.806 99.8081 136.269 100.023C135.948 100.13 135.626 100.183 135.304 100.183C132.194 100.183 129.083 100.183 125.973 100.183C124.632 100.183 124.149 99.6472 124.149 98.3065C123.989 95.1424 123.989 92.032 123.989 88.8679Z" fill="#F7EA28"/>
<path fill-rule="evenodd" clip-rule="evenodd" d="M28.7983 88.8679C28.7983 85.7038 28.7983 82.5934 28.7983 79.4293C28.7983 78.1422 29.281 77.606 30.5681 77.606C33.7321 77.606 36.8962 77.606 40.0603 77.606C41.1865 77.606 41.7228 78.0886 41.6691 78.9467C41.6691 79.5366 41.3474 79.912 40.8111 80.0729C40.4357 80.1801 40.0603 80.1801 39.6849 80.1801C37.3252 80.1801 34.9656 80.1801 32.6059 80.1801C32.1233 80.1801 32.016 80.2874 32.016 80.77C32.016 82.8615 32.016 84.953 32.016 86.9909C32.016 87.4736 32.1233 87.5808 32.6059 87.5808C34.7511 87.5272 36.8426 87.5808 38.9877 87.5808C39.1486 87.5808 39.3095 87.5808 39.4704 87.5808C40.4357 87.6345 40.972 88.0635 40.972 88.8679C40.972 89.6723 40.4357 90.155 39.4167 90.155C37.4861 90.2086 35.5555 90.155 33.6249 90.155C32.0697 90.155 32.0697 90.155 32.0697 91.7638C32.0697 93.4263 32.1233 95.1424 32.0697 96.8049C32.0697 97.4484 32.2842 97.5557 32.8741 97.5557C35.1801 97.5021 37.4861 97.5557 39.7385 97.5557C40.1139 97.5557 40.4893 97.5557 40.8647 97.6629C41.401 97.8775 41.6691 98.1992 41.7228 98.7891C41.7228 99.379 41.5082 99.8081 40.9183 100.023C40.6502 100.13 40.3284 100.183 40.0067 100.183C36.8962 100.183 33.7321 100.183 30.6217 100.183C29.281 100.183 28.7983 99.6472 28.7983 98.3065C28.7983 95.1424 28.7983 91.9783 28.7983 88.8679Z" fill="#F7EA28"/>
<path fill-rule="evenodd" clip-rule="evenodd" d="M53.8427 95.6787C54.8616 93.2118 55.8269 90.9594 56.7386 88.6534C58.0793 85.4357 59.42 82.1644 60.7607 78.9467C61.1361 78.0886 61.6724 77.4451 62.6914 77.4451C63.7103 77.4987 64.2466 78.0886 64.0857 79.1075C64.0321 79.3221 63.9784 79.5902 63.8712 79.8047C61.1361 86.1865 58.4547 92.5146 55.7197 98.8428C55.3979 99.5935 54.9689 100.183 54.0572 100.237C53.0383 100.344 52.4484 99.9689 52.0193 99.0036C51.054 96.8585 50.1423 94.6597 49.2307 92.5146C47.4609 88.3852 45.6912 84.2559 43.9215 80.1265C43.8142 79.912 43.7606 79.6975 43.6533 79.5366C43.3315 78.5713 43.4924 77.9813 44.136 77.6596C44.9404 77.2306 46.013 77.4451 46.442 78.1959C46.6565 78.5713 46.871 78.9467 47.0319 79.3757C49.177 84.524 51.3222 89.6723 53.4673 94.8206C53.5745 95.0888 53.6818 95.3033 53.8427 95.6787Z" fill="#F7EA28"/>
<path fill-rule="evenodd" clip-rule="evenodd" d="M95.4583 89.7259C95.4583 92.6754 95.4583 95.625 95.4583 98.5745C95.4583 100.022 94.1176 100.773 92.8305 100.076C92.2942 99.7544 92.1334 99.2717 92.1334 98.6818C92.1334 95.9467 92.1334 93.1581 92.1334 90.423C92.1334 87.2053 92.1334 83.9876 92.1334 80.7699C92.1334 80.2873 92.0261 80.18 91.5434 80.18C90.0418 80.2337 88.5939 80.18 87.0923 80.18C86.1806 80.18 85.6443 79.8046 85.5371 79.1611C85.3762 78.4639 85.698 77.874 86.3951 77.6595C86.6096 77.6059 86.9314 77.5522 87.1459 77.5522C91.5434 77.5522 95.9946 77.5522 100.392 77.5522C100.714 77.5522 100.982 77.6059 101.304 77.7131C101.84 77.9276 102.108 78.303 102.108 78.893C102.108 79.4292 101.84 79.8583 101.304 80.0191C100.982 80.1264 100.607 80.18 100.285 80.18C98.8369 80.18 97.4426 80.18 96.0482 80.18C95.6192 80.18 95.5119 80.2873 95.5119 80.7163C95.4583 83.7731 95.4583 86.7763 95.4583 89.7259Z" fill="#F7EA28"/>
<path fill-rule="evenodd" clip-rule="evenodd" d="M115.033 29.5552C113.424 29.0726 111.761 28.9653 110.045 29.0189C109.992 28.7508 110.152 28.6435 110.26 28.4827C112.244 25.1577 112.941 21.5646 112.137 17.7034C110.421 9.82002 103.556 4.88622 95.5119 5.7979C92.0261 6.22692 89.0765 7.78214 86.6632 10.3027C86.5024 10.4636 86.2878 10.5708 86.4487 10.839C86.985 11.6434 87.3604 12.5014 87.7894 13.4131C87.9503 13.1986 88.0576 13.0913 88.1648 12.9841C90.8999 9.82002 94.2785 8.31843 98.4615 8.69382C107.257 9.44462 112.298 18.9905 107.954 26.6057C106.935 28.429 105.594 29.877 103.717 30.8423C101.089 32.183 99.1586 34.2745 97.7643 36.8487C97.657 37.0096 97.6034 37.2241 97.4425 37.3313C91.7579 26.0158 76.2057 26.4984 70.9501 36.3124C70.8429 36.0979 70.7356 35.8834 70.6284 35.6688C69.2877 32.8265 67.2498 30.6278 64.5148 29.0189C64.0321 28.7508 63.6031 28.429 63.2277 28C60.4926 25.1041 59.4737 21.6182 60.1172 17.6497C61.1362 11.1607 67.5716 6.60232 74.007 7.78214C81.7294 9.23011 86.0733 17.0062 83.1774 24.3533C83.1238 24.5678 82.9629 24.7287 83.0701 24.9968C83.3919 26.0694 83.8209 27.142 84.4108 28.1073C87.8967 23.3343 88.1112 16.0945 83.8209 10.5172C79.477 4.93984 72.0227 3.11648 65.6946 6.11967C61.7797 7.99666 59.0983 11.0535 57.7576 15.1292C56.3633 19.2586 56.8995 23.2271 58.9374 27.0883C57.5967 26.9811 56.3633 26.9274 55.1298 27.142C46.3884 28.3218 40.4357 36.795 42.3663 45.3219C43.9215 52.1864 49.9815 57.0129 57.0604 57.0129C61.6188 57.0129 65.4264 55.2432 68.376 51.811C68.5369 51.5965 68.7514 51.4356 68.5905 51.1138C68.1078 50.1485 67.7861 49.1832 67.5179 48.1642C67.2498 48.2715 67.1962 48.486 67.0889 48.6469C66.3381 49.8267 65.4264 50.8457 64.3002 51.7037C60.4926 54.5996 55.1834 54.9214 50.8932 52.4545C46.442 49.8267 44.5114 45.8582 44.9941 40.7099C45.584 34.8108 50.5178 30.2524 56.3633 29.9306C63.0668 29.5552 69.3949 35.1326 69.0732 42.2651C69.0195 43.0696 68.8586 43.9276 68.9659 44.732C69.5022 50.5775 72.3981 54.8678 77.6001 57.4956C77.9218 57.6564 78.1363 57.871 78.2436 58.2464C78.6726 59.6407 79.1016 61.035 79.5843 62.4294C79.7452 62.8584 79.7452 63.2874 79.6379 63.7164C79.2089 65.5398 78.7262 67.4168 78.4045 69.2938C78.19 70.3663 77.8146 70.849 76.6347 71.0635C74.436 71.4389 72.3445 72.1361 70.4675 73.5304C69.9848 73.8522 69.6094 74.2276 69.3413 74.7639C79.1553 71.4925 88.9156 71.4389 98.6223 74.7639C98.3006 74.1203 97.6034 73.4768 96.4772 72.8869C94.8147 71.9752 93.045 71.4389 91.2216 71.0635C90.7926 70.9563 90.5781 70.849 90.4708 70.3663C90.1491 68.3821 89.72 66.3979 89.3447 64.4672C89.2374 63.9846 89.1301 63.5019 89.2374 62.9656C89.6664 61.3032 90.0954 59.6943 90.4708 57.9782C90.5781 57.5492 90.7926 57.3347 91.168 57.1202C96.2091 54.1706 98.8369 49.7731 98.9441 43.9276C99.0514 37.0632 104.468 31.7004 111.332 31.9149C119.108 32.1294 124.632 39.2619 122.809 46.8772C121.629 51.7037 117.714 55.2432 112.727 55.9403C107.525 56.6375 102.913 54.3851 100.446 49.8803C100.338 49.6658 100.231 49.505 100.07 49.2368C99.6949 50.2021 99.3731 51.1138 98.8905 51.9182C98.5687 52.4009 98.676 52.669 98.9977 53.0444C102.537 57.5492 107.096 59.5334 112.78 58.8899C119.752 58.0855 125.061 52.7226 125.866 45.8046C126.724 38.4039 122.165 31.5931 115.033 29.5552ZM93.045 52.0255C91.7579 53.5807 90.0954 54.5996 88.2185 55.2968C87.8967 55.4577 87.7358 55.5649 87.6822 55.994C87.414 58.1391 87.0923 60.2306 86.8241 62.3757C86.7169 63.3947 86.985 64.4136 87.0923 65.4325C87.2531 66.9341 87.4677 68.4894 87.6822 69.991C87.7358 70.3663 87.7358 70.5809 87.1995 70.5272C85.3225 70.3663 83.4455 70.3127 81.5686 70.4736C81.0859 70.5272 80.9786 70.42 81.0859 69.9373C81.4613 67.7922 81.8367 65.7007 82.1585 63.5556C82.2657 62.8048 81.9976 62.1076 81.8903 61.4104C81.6222 59.748 81.354 58.0855 81.0859 56.423C81.0323 55.994 80.8714 55.7258 80.3351 55.6186C75.4549 54.1706 72.1836 50.0412 71.9155 45.1074C71.6473 39.5837 74.3824 34.8108 78.9944 32.8802C80.4424 32.2903 82.0512 31.9685 83.7673 31.9685C88.8084 32.0758 92.6696 34.2209 94.7611 38.8865C96.9062 43.4986 96.37 48.0034 93.045 52.0255Z" fill="#F7EA28"/>
<path fill-rule="evenodd" clip-rule="evenodd" d="M15.4449 77.7132C12.549 77.4451 9.65305 77.606 6.81075 77.606C5.68456 77.606 5.2019 78.1959 5.2019 79.3221C5.2019 82.4861 5.2019 85.6502 5.2019 88.8143C5.2019 92.032 5.2019 95.2497 5.2019 98.4674C5.2019 99.5399 5.68456 100.13 6.75713 100.13C9.81394 100.13 12.8171 100.344 15.8739 100.023C18.8771 99.7008 21.3976 98.4674 23.221 96.0005C24.8835 93.7481 25.4198 91.1739 25.3661 88.4389C25.3125 82.647 21.2368 78.2495 15.4449 77.7132ZM21.0223 93.0509C19.8424 95.8396 17.6973 97.2876 14.8014 97.663C12.8708 97.9311 10.8865 97.7166 8.90226 97.7702C8.4196 97.7702 8.47323 97.5021 8.47323 97.2339C8.47323 94.4453 8.47323 91.6566 8.47323 88.8679C8.47323 86.1329 8.47323 83.3442 8.47323 80.6092C8.47323 80.341 8.36597 80.0192 8.84863 80.0192C10.9938 80.0729 13.1389 79.8584 15.2304 80.2338C18.8235 80.8773 21.1831 83.3442 21.6658 86.9373C21.9876 89.0288 21.8803 91.0667 21.0223 93.0509Z" fill="#F7EA28"/>
<path fill-rule="evenodd" clip-rule="evenodd" d="M120.717 98.2527C120.396 97.8773 120.074 97.6091 119.752 97.2874C117.178 94.9277 114.604 92.5681 111.869 90.0475C112.351 90.0475 112.62 90.0475 112.888 90.0475C114.55 89.9939 116.159 89.7794 117.714 89.0286C120.932 87.4197 121.897 82.1642 118.572 79.6436C117.232 78.6247 115.676 77.9812 114.014 77.7667C111.332 77.4449 108.651 77.6594 105.97 77.6594C104.951 77.6594 104.468 78.2493 104.468 79.3219C104.468 82.7541 104.468 86.1327 104.468 89.5649C104.468 92.6217 104.468 95.6785 104.468 98.7353C104.468 99.3252 104.629 99.8079 105.165 100.13C106.452 100.88 107.793 100.076 107.793 98.6281C107.793 96.0539 107.793 93.5334 107.793 90.9592C107.793 90.7447 107.686 90.5838 107.9 90.4229C108.329 90.7983 108.705 91.1737 109.134 91.5491C112.083 94.2842 115.086 96.9656 118.036 99.7006C118.626 100.237 119.323 100.559 120.127 100.291C121.093 99.9688 121.415 99.0571 120.717 98.2527ZM108.168 88.0097C107.793 88.0097 107.739 87.7951 107.739 87.527C107.739 86.3472 107.739 85.1137 107.739 83.9339C107.739 82.8077 107.739 81.6279 107.739 80.5017C107.739 80.1799 107.793 80.019 108.168 80.019C109.831 80.0727 111.547 79.9118 113.209 80.1263C113.907 80.2336 114.604 80.3944 115.194 80.7162C117.714 82.0033 117.661 84.6847 116.695 86.2936C115.998 87.5806 114.657 87.8488 113.37 87.956C111.654 88.0097 109.884 87.956 108.168 88.0097Z" fill="#F7EA28"/>
<path fill-rule="evenodd" clip-rule="evenodd" d="M101.357 17.596C101.411 17.3815 101.572 17.1133 101.304 16.9525C101.089 16.7916 100.875 16.8988 100.714 17.0061C100.392 17.167 100.07 17.167 99.7486 17.0061C99.4804 16.8988 99.1587 16.8452 98.8369 16.8452C96.2091 16.6843 93.7422 19.2049 93.8495 21.8326C93.9031 23.4951 95.0829 24.4604 96.6918 24.1923C97.4426 24.085 98.0861 23.7633 98.6224 23.1733C98.8905 23.9778 99.2123 24.2459 100.017 24.2459C100.446 24.2459 100.875 24.1387 101.25 23.9241C102.484 23.2806 103.234 22.208 103.771 21.0282C105.272 17.7033 103.449 14.3247 99.8558 13.7348C96.6918 13.1985 93.2596 14.9146 91.758 17.8641C90.6318 20.0093 90.3636 22.2617 91.5971 24.4604C93.0987 27.0346 96.3164 28.1071 99.3195 27.0346C100.338 26.6592 101.304 26.2302 102.055 25.4257C102.215 25.2112 102.43 24.9967 102.215 24.7286C102.001 24.4604 101.733 24.5141 101.518 24.6749C101.357 24.7822 101.197 24.8894 101.036 24.9967C100.178 25.5866 99.2659 25.962 98.3006 26.1765C95.7801 26.7128 93.4741 25.4257 92.616 23.0125C91.758 20.4919 93.0987 17.167 95.6192 15.6654C96.9599 14.861 98.4079 14.5928 99.9095 14.9682C101.411 15.3436 102.376 16.3626 102.698 17.8641C103.074 19.6339 102.698 21.2964 101.465 22.6371C101.143 22.9588 100.714 23.3879 100.231 23.1197C99.7486 22.7979 100.124 22.2617 100.231 21.8863C100.553 20.3847 100.982 18.9903 101.357 17.596ZM99.5341 19.2049C99.3196 20.0093 99.1587 20.7601 98.7833 21.5109C98.5151 22.1008 98.1397 22.5834 97.4962 22.8516C96.2627 23.3879 95.3511 22.7979 95.4047 21.4572C95.4583 19.6875 96.6381 18.2395 98.1397 18.025C98.3006 17.9714 98.4615 17.9714 98.676 17.9714C99.6949 18.025 99.8022 18.1859 99.5341 19.2049Z" fill="#F7EA28"/>
<path fill-rule="evenodd" clip-rule="evenodd" d="M117.231 41.0313C115.676 39.7443 114.067 38.4572 112.512 37.2237C111.869 36.6875 111.225 36.7947 110.689 37.4383C108.651 39.9588 106.667 42.4257 104.629 44.9462C104.039 45.6434 104.146 46.2869 104.843 46.8768C106.345 48.0567 107.793 49.2365 109.294 50.4699C110.045 51.1135 110.689 51.0598 111.279 50.309C113.317 47.7885 115.301 45.3216 117.339 42.8011C117.553 42.5866 117.66 42.3184 117.66 41.943C117.66 41.5676 117.5 41.2459 117.231 41.0313ZM109.884 49.9336C108.329 48.7002 106.774 47.4667 105.272 46.2333C104.843 45.9115 105.111 45.6434 105.326 45.3752C105.54 45.0535 105.755 45.1607 106.023 45.3752C107.525 46.6087 109.08 47.8421 110.582 49.0756C110.742 49.1828 110.903 49.2901 110.957 49.5046C110.903 49.88 110.206 50.2018 109.884 49.9336ZM115.783 43.4446C114.389 45.2144 112.941 46.9841 111.547 48.7538C111.332 49.022 111.225 49.0756 110.957 48.8075C109.455 47.574 107.9 46.3406 106.398 45.1071C105.969 44.7853 105.969 44.5708 106.291 44.1418C107.686 42.4793 109.026 40.7632 110.367 39.0471C110.635 38.7253 110.796 38.7253 111.118 38.9935C112.673 40.2806 114.228 41.514 115.783 42.8011C115.891 42.9083 116.052 42.962 116.052 43.1765C115.944 43.2301 115.837 43.3374 115.783 43.4446ZM116.373 42.6402C116.159 42.8011 116.052 42.5329 115.891 42.4257C114.335 41.1922 112.78 39.9588 111.279 38.7253C111.064 38.5644 110.796 38.4036 111.118 38.0818C111.386 37.8137 111.6 37.4919 112.029 37.8673C113.102 38.779 114.228 39.637 115.354 40.5487C115.783 40.8705 116.212 41.2459 116.641 41.5676C116.802 41.6749 116.91 41.7821 116.856 42.0503C116.802 42.2648 116.588 42.4793 116.373 42.6402Z" fill="#F7EA28"/>
<path fill-rule="evenodd" clip-rule="evenodd" d="M88.0576 40.227C87.7358 40.1734 87.5749 40.0661 87.4677 39.8516C87.3604 39.6371 87.3604 39.369 87.5749 39.1545C88.1648 38.5645 88.7547 37.921 89.3983 37.3847C89.6664 37.1702 89.9882 37.1702 90.2563 37.4383C90.5245 37.6529 90.5781 37.9746 90.3636 38.2428C89.7737 38.8863 89.1301 39.5299 88.4866 40.1198C88.3257 40.1734 88.1648 40.1734 88.0576 40.227Z" fill="#F7EA28"/>
<path fill-rule="evenodd" clip-rule="evenodd" d="M84.5717 36.9556C84.5717 37.331 84.5717 37.6528 84.5717 38.0282C84.5717 38.4572 84.3571 38.7253 83.8745 38.7253C83.4455 38.7253 83.231 38.4572 83.231 38.0818C83.231 37.2774 83.231 36.5266 83.231 35.7222C83.231 35.2931 83.4991 35.0786 83.9281 35.0786C84.3035 35.0786 84.5717 35.3468 84.5717 35.7758C84.5717 36.0976 84.5717 36.5266 84.5717 36.9556Z" fill="#F7EA28"/>
<path fill-rule="evenodd" clip-rule="evenodd" d="M80.6032 39.5301C80.6032 39.8519 80.4959 40.0128 80.2278 40.1737C80.0133 40.3345 79.7451 40.2809 79.5306 40.12C78.8871 39.5301 78.2971 38.8866 77.7072 38.2967C77.4927 38.0822 77.4927 37.7604 77.7609 37.5459C77.9754 37.3314 78.2435 37.1705 78.5117 37.385C79.2625 37.9749 79.906 38.6721 80.5495 39.4229C80.6032 39.3692 80.6032 39.4765 80.6032 39.5301Z" fill="#F7EA28"/>
<path fill-rule="evenodd" clip-rule="evenodd" d="M108.275 47.7885C108.222 47.8958 108.168 48.003 108.061 47.9494C107.846 47.8958 107.685 47.7349 107.632 47.5204C107.632 47.4131 107.685 47.3059 107.846 47.3595C108.007 47.4667 108.168 47.574 108.275 47.7885Z" fill="#F7EA28"/>
<path fill-rule="evenodd" clip-rule="evenodd" d="M113.585 39.5835C113.906 39.9053 114.335 40.0661 114.604 40.4952C114.711 40.6561 114.496 40.8169 114.335 40.6561C114.014 40.4415 113.746 40.1734 113.424 39.9053C113.37 39.8516 113.316 39.7444 113.424 39.6908C113.424 39.6371 113.477 39.6371 113.585 39.5835Z" fill="#F7EA28"/>
<path fill-rule="evenodd" clip-rule="evenodd" d="M88.5939 45.1072C88.6475 42.8012 87.0387 40.8169 84.7327 40.3343C82.5339 39.8516 80.2279 41.0314 79.2626 43.0693C78.4045 44.9999 78.9408 46.716 80.2279 48.2176C80.7642 48.8075 81.0323 49.4511 80.9787 50.3091C80.925 50.899 80.9787 51.4353 80.9787 52.0252C81.0323 52.8833 81.5686 53.4732 82.4266 53.4732C82.8557 53.4732 83.2847 53.4732 83.6601 53.4732C84.0355 53.4732 84.4645 53.4732 84.8399 53.4732C85.8052 53.4196 86.3415 52.8833 86.3415 51.918C86.3415 51.3817 86.3415 50.8454 86.3415 50.2555C86.2879 49.5047 86.556 48.8075 87.0923 48.2176C87.9503 47.3596 88.5403 46.3406 88.5939 45.1072ZM85.0008 52.5079C84.4109 52.5079 83.8746 52.5079 83.2847 52.5079C82.9629 52.5079 82.6948 52.5079 82.373 52.5079C82.1049 52.4542 81.944 52.2397 81.944 51.9716C81.944 51.6498 82.2121 51.7571 82.4266 51.7571C82.8557 51.7571 83.2847 51.7571 83.7137 51.7571C84.1427 51.7571 84.5181 51.7571 84.9472 51.7571C85.108 51.7571 85.4298 51.5962 85.4298 51.9716C85.4834 52.2934 85.2689 52.5079 85.0008 52.5079ZM85.108 50.8454C84.6254 50.8454 84.1964 50.8454 83.7137 50.8454C83.2311 50.8454 82.7484 50.8454 82.2657 50.8454C81.9976 50.8454 81.944 50.7381 81.944 50.5236C81.944 50.3091 81.9976 50.1482 82.2657 50.1482C83.2311 50.1482 84.1964 50.1482 85.108 50.1482C85.3762 50.1482 85.4298 50.2555 85.4298 50.47C85.4834 50.7918 85.3762 50.8454 85.108 50.8454ZM85.5907 49.022C85.5371 49.2366 85.3226 49.2366 85.1617 49.2366C84.679 49.2366 84.1964 49.2366 83.4992 49.2366C82.6411 49.3974 81.7295 49.3438 81.3004 48.0567C81.1932 47.735 80.8178 47.5204 80.6033 47.1987C79.4771 45.6971 79.4771 44.0346 80.6033 42.5866C81.7295 41.1923 83.6601 40.7633 85.2689 41.4604C86.985 42.2112 88.5939 44.7318 86.8242 47.0914C86.4488 47.735 85.8052 48.2176 85.5907 49.022Z" fill="#F7EA28"/>
<path fill-rule="evenodd" clip-rule="evenodd" d="M65.3728 41.836C65.1047 40.6562 64.4611 39.7445 63.8712 38.7256C63.0132 37.3313 61.887 36.2051 60.4926 35.2934C59.0983 34.3817 56.256 35.2398 56.4705 37.1704C56.5241 37.5458 56.256 37.7067 55.9879 37.8675C55.0226 38.4575 54.0572 38.9937 53.1456 39.5837C52.8238 39.7982 52.502 39.7982 52.1803 39.6909C50.5178 39.101 48.748 40.3881 48.748 42.1578C48.748 43.8203 49.2843 45.3219 50.0351 46.7698C50.625 47.8424 51.2149 48.8613 52.1266 49.6658C53.3601 50.6847 54.8617 50.2021 55.2907 48.7005C55.4516 48.1642 55.398 47.6279 55.4516 47.1452C55.4516 45.6973 55.4516 45.6973 55.7734 45.3219C56.7923 44.1421 58.133 43.3913 59.6346 42.9086C60.0636 42.7477 60.4926 42.855 60.9217 43.1231C61.5652 43.5521 62.316 43.8739 63.0668 44.0884C64.5148 44.4638 65.641 42.9622 65.3728 41.836ZM64.193 43.0159C63.764 43.3913 63.2813 43.3376 62.7987 43.1231C62.316 42.9086 61.8333 42.6941 61.4043 42.426C60.7072 41.9433 59.9564 41.9433 59.1519 42.2114C57.5967 42.7477 56.256 43.6058 55.1298 44.7856C54.5399 45.4291 54.6472 46.1799 54.6472 46.8235C54.6472 47.4134 54.6472 47.9497 54.5399 48.4323C54.2718 49.4513 53.4137 49.7194 52.6629 49.0222C51.7512 48.1642 51.1613 47.038 50.5714 45.9654C50.0351 45.0001 49.767 43.9275 49.5525 42.8013C49.3916 41.8897 49.7134 41.1925 50.4642 40.6562C50.8932 40.3344 51.3758 40.2272 51.8585 40.4953C52.4484 40.8171 52.9847 40.7098 53.521 40.3881C54.4863 39.7445 55.5052 39.1546 56.5241 38.5647C57.0068 38.2966 57.2213 37.9212 57.2749 37.3313C57.3822 36.1514 58.7229 35.4006 59.8491 35.9369C61.1898 36.6341 62.1551 37.7067 62.9595 38.9401C63.4958 39.7982 64.0321 40.6562 64.4075 41.5679C64.622 42.0506 64.6756 42.5868 64.193 43.0159Z" fill="#F7EA28"/>
<path fill-rule="evenodd" clip-rule="evenodd" d="M53.5211 43.1229C53.3602 42.9083 53.253 42.5866 52.8776 42.9083C52.5558 43.1765 52.3413 43.1229 52.1804 42.7475C52.0195 42.3184 51.7514 42.4793 51.4833 42.6402C51.2151 42.8011 50.947 42.962 51.2687 43.2837C51.5905 43.6591 51.4296 43.8737 51.0542 43.9809C50.947 44.0345 50.7861 44.1418 50.947 44.3563C51.1079 44.5708 51.1079 44.839 51.4296 44.9462C51.5369 44.8926 51.6441 44.839 51.7514 44.7853C52.0195 44.5708 52.1804 44.6245 52.3413 44.9462C52.5022 45.3216 52.7167 45.3216 53.0385 45.1071C53.3066 44.9462 53.5748 44.7853 53.253 44.4099C52.9848 44.0882 53.0921 43.9273 53.4139 43.7664C53.8429 43.6055 53.682 43.391 53.5211 43.1229ZM53.1457 43.6055C52.7167 43.82 52.5558 44.0882 52.9312 44.4636C53.0385 44.5708 53.0921 44.7317 52.8776 44.839C52.6631 44.9462 52.6094 44.8926 52.5022 44.7317C52.2877 44.2491 52.0195 44.1954 51.5905 44.5172C51.4833 44.6245 51.3224 44.6781 51.2151 44.4636C51.1079 44.3027 51.1615 44.1954 51.3224 44.0882C51.4833 43.9809 51.805 43.9273 51.805 43.6055C51.6978 43.4446 51.6441 43.3374 51.5905 43.2301C51.4833 43.0692 51.4296 42.962 51.6441 42.8547C51.805 42.7475 51.9123 42.8011 52.0195 42.962C52.234 43.391 52.5022 43.5519 52.8776 43.1765C52.9848 43.0692 53.1457 43.0156 53.253 43.2301C53.3602 43.391 53.3602 43.5519 53.1457 43.6055Z" fill="#F7EA28"/>
<path fill-rule="evenodd" clip-rule="evenodd" d="M58.9376 39.1011C58.5085 39.1011 58.1331 39.3692 58.1868 39.8519C58.1868 40.3345 58.5085 40.549 58.9376 40.549C59.4202 40.549 59.6347 40.2809 59.6884 39.7982C59.6347 39.4228 59.4202 39.1011 58.9376 39.1011ZM58.8839 40.3345C58.6158 40.2809 58.4549 40.12 58.4549 39.8519C58.4549 39.5301 58.6694 39.3692 58.9376 39.4228C59.2057 39.4228 59.3666 39.5837 59.3666 39.8519C59.3666 40.1736 59.1521 40.3345 58.8839 40.3345Z" fill="#F7EA28"/>
<path fill-rule="evenodd" clip-rule="evenodd" d="M60.6537 39.4761C60.1711 39.4224 59.9029 39.7442 59.8493 40.1732C59.7957 40.6023 60.0638 40.924 60.5465 40.9777C61.0291 41.0313 61.2973 40.7631 61.3509 40.2269C61.3509 39.7442 61.0827 39.4761 60.6537 39.4761ZM60.5465 40.6559C60.2783 40.6559 60.1174 40.495 60.1174 40.1732C60.1174 39.9051 60.2783 39.6906 60.5465 39.6906C60.8682 39.6906 60.9755 39.9051 61.0291 40.2269C61.0291 40.5486 60.8146 40.6559 60.5465 40.6559Z" fill="#F7EA28"/>
<path fill-rule="evenodd" clip-rule="evenodd" d="M59.4736 37.4917C58.9373 37.4917 58.6692 37.7598 58.6692 38.1889C58.6692 38.6179 58.8837 38.9397 59.3664 38.9397C59.849 38.9397 60.1708 38.6715 60.1708 38.1889C60.1708 37.7598 59.849 37.4917 59.4736 37.4917ZM59.3664 38.6715C59.0446 38.6715 58.8837 38.457 58.9373 38.1889C58.991 37.9207 59.1518 37.7598 59.42 37.7598C59.7418 37.7598 59.849 38.028 59.9026 38.2425C59.7954 38.5643 59.6345 38.6715 59.3664 38.6715Z" fill="#F7EA28"/>
<path fill-rule="evenodd" clip-rule="evenodd" d="M61.1362 37.814C60.6536 37.814 60.3318 38.0821 60.3318 38.5648C60.3318 39.0474 60.5999 39.2619 61.0826 39.3156C61.5652 39.3156 61.8334 39.0474 61.8334 38.6184C61.8334 38.1894 61.5652 37.8676 61.1362 37.814ZM61.029 39.0474C60.7608 39.0474 60.5999 38.8329 60.5999 38.6184C60.5999 38.3502 60.7608 38.1357 61.0826 38.1357C61.3507 38.1357 61.5116 38.2966 61.5652 38.5648C61.458 38.8329 61.3507 39.0474 61.029 39.0474Z" fill="#F7EA28"/>
<path fill-rule="evenodd" clip-rule="evenodd" d="M54.5399 40.4954C54.2182 40.6026 53.7355 40.7099 53.6819 41.1389C53.6819 41.3534 53.8428 41.7825 54.1645 41.6752C54.4863 41.5679 54.8617 41.4071 55.0762 41.0317C54.8617 40.8708 54.8617 40.3881 54.5399 40.4954ZM54.2182 41.3534C54.0573 41.3534 54.0037 41.2462 54.0037 41.1389C54.0573 40.9244 54.2718 40.8708 54.4327 40.8171C54.5399 40.7635 54.5936 40.8171 54.5936 40.9244C54.6472 41.2462 54.3791 41.2462 54.2182 41.3534Z" fill="#F7EA28"/>
<path fill-rule="evenodd" clip-rule="evenodd" d="M56.685 39.2078C56.3632 39.3151 55.8805 39.4224 55.8269 39.905C55.8269 40.1195 55.9878 40.5486 56.2559 40.4413C56.5777 40.334 57.0067 40.1732 57.1676 39.7441C57.0067 39.5296 57.0067 39.1006 56.685 39.2078ZM56.3632 40.0659C56.2559 40.1195 56.2023 40.0123 56.2023 39.9586C56.2023 39.6905 56.4704 39.6369 56.6313 39.5296C56.7922 39.476 56.7922 39.5832 56.8458 39.6905C56.7386 39.905 56.5241 39.9586 56.3632 40.0659Z" fill="#F7EA28"/>
<path fill-rule="evenodd" clip-rule="evenodd" d="M83.4993 44.9463C84.3037 44.9463 84.84 45.1072 85.3227 45.3753C85.4836 45.4826 85.859 45.5362 85.6444 45.858C85.4836 46.0725 85.3227 46.5551 84.7864 46.1797C84.1429 45.6971 83.3384 45.6971 82.6949 46.1797C82.2122 46.5015 82.0513 46.1261 81.8905 45.9116C81.5687 45.5362 82.0514 45.4826 82.2122 45.3753C82.6413 45.1072 83.1775 44.9463 83.4993 44.9463Z" fill="#F7EA28"/>
<path fill-rule="evenodd" clip-rule="evenodd" d="M73.5779 23.3343C72.7735 23.3343 72.0227 23.3343 71.2183 23.3343C71.2183 23.2807 71.2183 23.2271 71.2183 23.2271C72.0227 23.2271 72.7735 23.2271 73.5779 23.2271C73.5779 23.2271 73.5779 23.2807 73.5779 23.3343Z" fill="#FDF3EB"/>
<path fill-rule="evenodd" clip-rule="evenodd" d="M70.6818 21.9937C70.3064 21.7255 69.8774 21.511 69.6093 21.2429C69.3948 21.0283 69.7702 20.8138 69.8774 20.5993C71.3254 18.4542 73.0951 16.5772 74.704 14.5929C75.1866 14.003 75.6693 13.3595 76.1519 12.716C76.2592 12.5551 76.4737 12.3406 76.6882 12.4478C76.9563 12.6087 76.7418 12.8768 76.6346 13.0377C74.6503 15.6655 73.2024 18.6687 71.2181 21.2965C71.1109 21.5646 70.8964 21.7791 70.6818 21.9937Z" fill="#F38521"/>
<path fill-rule="evenodd" clip-rule="evenodd" d="M71.0037 22.369C72.5589 20.492 73.6851 18.5078 74.9185 16.5771C75.7766 17.757 75.7766 19.0977 74.8649 20.2239C74.3823 20.7602 74.0605 21.3501 74.0068 22.1009C73.9532 22.369 73.8996 22.4226 73.6315 22.4226C72.7734 22.369 71.969 22.369 71.0037 22.369Z" fill="#F38521"/>
<path fill-rule="evenodd" clip-rule="evenodd" d="M69.8238 20.0093C69.073 19.044 68.9658 17.7569 69.6093 16.738C70.2529 15.6654 71.8081 14.861 73.4706 15.3973C72.2371 17.0061 70.8964 18.4004 69.8238 20.0093Z" fill="#F38521"/>
<path fill-rule="evenodd" clip-rule="evenodd" d="M66.499 25.9622C66.8208 24.836 67.3034 23.6026 68.4296 22.7981C68.8586 22.4764 69.0731 23.0663 69.3949 23.2272C69.6631 23.3344 69.6094 23.4953 69.5558 23.7634C69.1268 24.9969 68.2687 25.8549 67.2498 26.6057C66.7671 26.8203 66.4454 26.6057 66.499 25.9622Z" fill="#F38521"/>
<path fill-rule="evenodd" clip-rule="evenodd" d="M69.8775 23.0665C69.7166 23.0665 68.7513 22.3693 68.8049 22.3157C68.9658 22.0475 69.073 21.6721 69.3948 21.5112C69.502 21.4576 70.4674 22.1548 70.4137 22.262C70.2528 22.5838 70.092 22.8519 69.8775 23.0665Z" fill="#F38521"/>
<path fill-rule="evenodd" clip-rule="evenodd" d="M71.2181 23.2272C70.8963 22.9591 70.8427 22.7445 71.3253 22.7445C72.0225 22.6909 72.7197 22.7445 73.4168 22.7445C73.8459 22.7445 73.7922 22.9591 73.5777 23.2272C72.7733 23.549 71.9689 23.4953 71.2181 23.2272Z" fill="#F38521"/>
<path fill-rule="evenodd" clip-rule="evenodd" d="M73.5778 23.3344C73.8459 23.6562 73.7387 23.817 73.3633 23.817C72.6661 23.817 72.0226 23.8707 71.3254 23.817C70.8427 23.7634 70.8427 23.6025 71.2181 23.3344C71.9689 23.2808 72.7734 23.2271 73.5778 23.3344Z" fill="#F38521"/>
<path fill-rule="evenodd" clip-rule="evenodd" d="M68.0006 12.2866C68.6441 13.1447 69.2876 14.0027 69.9312 14.8072C69.8775 14.8608 69.7703 14.9144 69.7167 14.968C69.0731 14.11 68.376 13.2519 67.7324 12.4475C67.8933 12.3939 67.9469 12.3402 68.0006 12.2866Z" fill="#F38521"/>
<path fill-rule="evenodd" clip-rule="evenodd" d="M72.3978 14.2174C72.237 13.1984 72.1833 12.1795 72.3442 11.1069C72.5051 12.1259 72.5051 13.1984 72.3978 14.2174Z" fill="#F38521"/>
<path fill-rule="evenodd" clip-rule="evenodd" d="M72.3444 24.0316C72.5589 24.0853 73.0416 23.8707 72.988 24.3534C72.988 24.6752 72.5589 24.5679 72.3444 24.5679C72.1299 24.5679 71.7009 24.7288 71.7009 24.3534C71.6472 23.8707 72.0763 24.0853 72.3444 24.0316Z" fill="#F38521"/>
<path fill-rule="evenodd" clip-rule="evenodd" d="M67.6786 19.4198C67.035 19.7415 66.3379 20.0633 65.6407 20.2242C65.5871 20.1706 65.5871 20.0633 65.5334 20.0097C66.177 19.7415 66.8205 19.4734 67.4641 19.2589C67.6786 19.2053 67.6786 19.2589 67.6786 19.4198Z" fill="#F38521"/>
<path fill-rule="evenodd" clip-rule="evenodd" d="M77.1708 19.2589C77.8143 19.527 78.4579 19.7952 79.1014 20.0097C79.0478 20.0633 79.0478 20.1706 78.9942 20.2242C78.297 20.0097 77.5998 19.6879 76.9563 19.4198C76.9563 19.2589 76.9563 19.2053 77.1708 19.2589Z" fill="#F38521"/>
<path fill-rule="evenodd" clip-rule="evenodd" d="M77.868 16.2553C77.3318 16.4162 76.7955 16.738 76.2056 16.6843C76.6346 16.3089 77.1172 16.2553 77.5999 16.0944C77.7072 16.0944 77.868 15.9872 77.868 16.2553Z" fill="#F38521"/>
<path fill-rule="evenodd" clip-rule="evenodd" d="M67.1425 16.3628C66.6598 16.2555 66.2308 16.0946 65.8018 15.8801C65.8018 15.7729 65.909 15.7729 65.9626 15.7192C66.4989 15.8265 66.9816 15.9874 67.4642 16.2019C67.357 16.3628 67.2497 16.3091 67.1425 16.3628Z" fill="#F38521"/>
<path fill-rule="evenodd" clip-rule="evenodd" d="M67.1423 16.3625C67.196 16.2553 67.3032 16.2553 67.4105 16.2017C67.7859 16.2553 68.1076 16.3625 68.5903 16.6843C67.9468 16.7916 67.5714 16.5234 67.1423 16.3625Z" fill="#F38521"/>
<path fill-rule="evenodd" clip-rule="evenodd" d="M77.8682 16.2556C77.8145 16.1483 77.7073 16.1483 77.5464 16.1483C77.8682 15.9875 78.2436 15.8266 78.619 15.7729C78.6726 15.8266 78.7798 15.8266 78.7798 15.9338C78.5653 16.0947 78.2435 16.202 77.8682 16.2556Z" fill="#F38521"/>
<path fill-rule="evenodd" clip-rule="evenodd" d="M77.171 19.2585C77.1173 19.3121 77.0637 19.3658 77.0101 19.4194C76.7956 19.3658 76.581 19.3121 76.2593 19.044C76.6883 18.9367 76.9028 19.0976 77.171 19.2585Z" fill="#F38521"/>
<path fill-rule="evenodd" clip-rule="evenodd" d="M67.6787 19.4195C67.6251 19.3659 67.5715 19.3123 67.5178 19.2586C67.7323 19.0978 68.0005 18.9369 68.3222 18.9905C68.1614 19.3659 67.8932 19.3659 67.6787 19.4195Z" fill="#F38521"/>
<path fill-rule="evenodd" clip-rule="evenodd" d="M78.8332 15.8799C78.7796 15.8263 78.726 15.7726 78.6724 15.719C78.8332 15.6654 79.0478 15.5045 79.1014 15.6654C79.2086 15.9335 78.9405 15.8799 78.8332 15.8799Z" fill="#F38521"/>
<path fill-rule="evenodd" clip-rule="evenodd" d="M65.9627 15.7727C65.909 15.8263 65.8554 15.88 65.8018 15.9336C65.6945 15.88 65.4264 15.9336 65.5336 15.7191C65.5873 15.5582 65.8018 15.7191 65.9627 15.7727Z" fill="#F38521"/>
<path fill-rule="evenodd" clip-rule="evenodd" d="M72.0229 100.344C70.1995 100.291 68.3761 100.076 66.6064 99.4326C66.0701 99.2181 65.5338 98.95 65.1048 98.5746C64.6222 98.0919 64.5149 97.5556 64.7831 96.9657C64.9976 96.4295 65.5875 96.1613 66.2846 96.2686C66.9282 96.3758 67.5181 96.7512 68.0544 97.0194C69.7169 97.7702 71.3793 98.0919 73.2027 97.8774C75.4015 97.6093 77.1176 96.1613 77.493 94.2307C77.8147 92.7291 77.3321 91.6565 75.9914 90.8521C74.597 90.0477 73.0954 89.6723 71.5938 89.2433C70.1995 88.8142 68.7515 88.3852 67.4645 87.688C64.4077 85.9183 63.9786 82.4325 66.4455 79.9656C68.537 77.9277 71.1648 77.445 73.9535 77.6595C75.2406 77.7668 76.474 77.9813 77.6538 78.5176C78.1365 78.7321 78.5655 78.9466 78.9409 79.322C79.3163 79.6974 79.4772 80.1264 79.2627 80.6091C79.0482 81.0918 78.6728 81.3599 78.1365 81.4135C77.3857 81.5208 76.8494 81.199 76.2059 80.8772C74.5434 79.9656 72.7737 79.7511 70.9503 80.2337C70.1995 80.4482 69.5023 80.8236 68.9661 81.4672C68.0008 82.7006 68.2153 84.2558 69.4487 85.2211C70.414 85.9183 71.4866 86.2937 72.6128 86.6155C73.8462 87.0445 75.1333 87.3663 76.3668 87.7953C76.6885 87.9025 76.9567 88.0098 77.2784 88.1707C79.3163 89.0287 80.8715 90.3158 81.086 92.6755C81.3006 95.196 80.2816 97.1803 78.2974 98.6282C76.474 99.9153 74.2753 100.291 72.0229 100.344Z" fill="#89C340"/>
<path fill-rule="evenodd" clip-rule="evenodd" d="M140.291 88.9216C140.291 85.7575 140.291 82.5935 140.291 79.4294C140.291 78.2496 140.774 77.6597 141.954 77.6597C145.172 77.6597 148.389 77.6597 151.607 77.6597C152.68 77.6597 153.216 78.1423 153.162 79.0004C153.162 79.5903 152.84 79.9657 152.304 80.1266C151.929 80.2338 151.553 80.2338 151.178 80.2338C148.818 80.2338 146.459 80.2338 144.099 80.2338C143.67 80.2338 143.563 80.3411 143.563 80.7701C143.563 82.8616 143.563 84.9531 143.563 87.0446C143.563 87.4736 143.67 87.5809 144.099 87.5809C146.298 87.5809 148.443 87.5809 150.642 87.5809C151.875 87.5809 152.465 88.0099 152.465 88.868C152.465 89.726 151.821 90.1551 150.588 90.1551C148.443 90.1551 146.244 90.1551 144.099 90.1551C143.616 90.1551 143.509 90.2623 143.509 90.745C143.509 92.8365 143.563 94.8743 143.509 96.9659C143.509 97.5021 143.67 97.5558 144.153 97.5558C146.512 97.5558 148.818 97.5558 151.178 97.5558C151.553 97.5558 151.929 97.5558 152.304 97.663C152.84 97.8239 153.162 98.1993 153.162 98.8428C153.162 99.4328 152.894 99.8618 152.358 100.023C152.09 100.13 151.768 100.184 151.446 100.184C148.336 100.184 145.225 100.184 142.115 100.184C140.774 100.184 140.238 99.7009 140.238 98.3602C140.291 95.1961 140.291 92.0857 140.291 88.9216Z" fill="#F38521"/>
<path fill-rule="evenodd" clip-rule="evenodd" d="M123.506 88.9216C123.506 85.7575 123.506 82.5935 123.506 79.4294C123.506 78.196 124.042 77.6597 125.276 77.6597C128.44 77.6597 131.604 77.6597 134.768 77.6597C135.894 77.6597 136.43 78.1423 136.43 79.0004C136.43 79.5903 136.109 79.9657 135.626 80.1266C135.25 80.2338 134.875 80.2875 134.553 80.2875C132.194 80.2875 129.834 80.2875 127.474 80.2875C127.045 80.2875 126.884 80.3411 126.884 80.8237C126.938 82.9152 126.884 85.0067 126.884 87.0983C126.884 87.5273 126.992 87.6345 127.421 87.6345C129.619 87.6345 131.765 87.6345 133.963 87.6345C135.197 87.6345 135.787 88.1172 135.787 88.9752C135.787 89.7797 135.143 90.2623 133.963 90.2623C131.818 90.2623 129.619 90.2623 127.474 90.2623C127.045 90.2623 126.831 90.3159 126.831 90.8522C126.884 92.8901 126.884 94.9816 126.831 97.0195C126.831 97.5021 126.938 97.663 127.474 97.663C129.834 97.6094 132.14 97.663 134.5 97.663C134.875 97.663 135.304 97.663 135.679 97.8239C136.216 98.0384 136.484 98.4138 136.484 98.9501C136.484 99.54 136.269 99.9154 135.733 100.13C135.411 100.237 135.09 100.291 134.768 100.291C131.657 100.291 128.547 100.291 125.436 100.291C124.096 100.291 123.559 99.8082 123.559 98.4674C123.506 95.1961 123.506 92.0321 123.506 88.9216Z" fill="#F38521"/>
<path fill-rule="evenodd" clip-rule="evenodd" d="M28.3158 88.8679C28.3158 85.7038 28.3158 82.5934 28.3158 79.4293C28.3158 78.1422 28.7984 77.6596 30.0855 77.606C33.2496 77.606 36.4136 77.606 39.5777 77.606C40.7039 77.606 41.2402 78.0886 41.1865 79.0003C41.1865 79.5902 40.8648 79.912 40.3285 80.1265C39.9531 80.2338 39.5777 80.2337 39.2023 80.2337C36.8427 80.2337 34.483 80.2337 32.1234 80.2337C31.6407 80.2337 31.5335 80.341 31.5335 80.8237C31.5335 82.9152 31.5335 84.953 31.5335 87.0445C31.5335 87.5272 31.6407 87.6345 32.1234 87.6345C34.2685 87.5808 36.36 87.6345 38.4515 87.6345C38.6124 87.6345 38.7733 87.6345 38.9342 87.6345C39.8995 87.6881 40.4357 88.1171 40.4357 88.9215C40.4357 89.726 39.8995 90.2086 38.8805 90.2622C36.9499 90.3159 35.0193 90.2622 33.0887 90.2622C31.4798 90.2622 31.4798 90.2622 31.4798 91.8711C31.4798 93.5872 31.5335 95.2497 31.4798 96.9121C31.4798 97.5557 31.6943 97.6629 32.2842 97.6629C34.5903 97.6093 36.8963 97.6629 39.1487 97.6629C39.5241 97.6629 39.8995 97.6629 40.2749 97.8238C40.8111 97.9847 41.0793 98.3601 41.1329 98.95C41.1329 99.5399 40.9184 99.969 40.3285 100.183C40.0067 100.291 39.7386 100.344 39.4168 100.344C36.3064 100.344 33.1423 100.344 30.0319 100.344C28.6912 100.344 28.2085 99.8081 28.2085 98.4674C28.3158 95.196 28.3158 92.032 28.3158 88.8679Z" fill="#89C340"/>
<path fill-rule="evenodd" clip-rule="evenodd" d="M53.3064 95.7325C54.3253 93.2656 55.2906 91.0132 56.2023 88.7072C57.543 85.4359 58.8837 82.2182 60.2244 79.0005C60.5998 78.1424 61.0825 77.4989 62.1551 77.5525C63.174 77.6061 63.7103 78.196 63.5494 79.215C63.4958 79.4295 63.4421 79.6976 63.3349 79.9121C60.5998 86.2939 57.8648 92.622 55.1834 98.9502C54.8616 99.701 54.4326 100.291 53.5209 100.345C52.502 100.452 51.9121 100.076 51.483 99.1111C50.5177 96.9659 49.606 94.7672 48.6944 92.622C46.9246 88.4927 45.1549 84.3633 43.3852 80.2339C43.2779 80.0194 43.2243 79.8049 43.1707 79.644C42.8489 78.6787 43.0098 78.0888 43.6533 77.767C44.4577 77.338 45.5303 77.5525 45.9593 78.3033C46.1738 78.6787 46.3883 79.0541 46.5492 79.4831C48.6944 84.6314 50.8395 89.7797 52.9846 94.9281C53.0919 95.1426 53.1991 95.3571 53.3064 95.7325Z" fill="#89C340"/>
<path fill-rule="evenodd" clip-rule="evenodd" d="M94.9756 89.7796C94.9756 92.7291 94.9756 95.6787 94.9756 98.6283C94.9756 100.076 93.6349 100.827 92.3478 100.13C91.8116 99.8081 91.6507 99.3254 91.6507 98.7355C91.6507 96.0005 91.6507 93.2118 91.6507 90.4767C91.6507 87.259 91.6507 84.0414 91.6507 80.8237C91.6507 80.341 91.5434 80.2337 91.0608 80.2337C89.5592 80.2874 88.1112 80.2337 86.6096 80.2337C85.6979 80.2337 85.1617 79.8583 85.0544 79.2148C84.8935 78.5176 85.2153 77.9277 85.9125 77.7132C86.1806 77.6596 86.4487 77.606 86.6633 77.606C91.0608 77.606 95.5119 77.606 99.9094 77.606C100.231 77.606 100.499 77.6596 100.821 77.7668C101.357 77.9814 101.626 78.3568 101.626 78.9467C101.626 79.5366 101.357 79.912 100.821 80.0729C100.499 80.1801 100.124 80.2337 99.8022 80.2337C98.4078 80.2337 96.9599 80.2337 95.5655 80.2337C95.1365 80.2337 95.0293 80.341 95.0293 80.77C94.9756 83.7732 94.9756 86.7764 94.9756 89.7796Z" fill="#F38521"/>
<path fill-rule="evenodd" clip-rule="evenodd" d="M114.55 29.6089C112.941 29.1263 111.279 29.019 109.563 29.0727C109.509 28.8045 109.67 28.6973 109.777 28.5364C111.761 25.2114 112.512 21.6183 111.654 17.7571C109.938 9.87373 103.074 4.93993 95.0294 5.85161C91.5436 6.28063 88.594 7.83585 86.1271 10.3564C85.9662 10.5173 85.7517 10.6245 85.9126 10.8927C86.4489 11.6971 86.8243 12.5551 87.2533 13.4668C87.4142 13.3059 87.5214 13.1451 87.6287 13.0378C90.3101 9.87373 93.7423 8.37214 97.9253 8.74754C106.72 9.49833 111.761 19.0442 107.418 26.6594C106.399 28.4291 105.058 29.9307 103.181 30.896C100.553 32.2904 98.6225 34.3282 97.2282 36.9024C97.1209 37.0633 97.1209 37.2778 96.9064 37.385C91.2218 26.0695 75.6696 26.5521 70.414 36.3661C70.3068 36.1516 70.1995 35.9371 70.0922 35.7226C68.7515 32.8803 66.7137 30.6279 63.9786 29.0727C63.496 28.8045 63.0669 28.4827 62.6915 28.0537C59.9565 25.1042 58.9912 21.672 59.5811 17.7035C60.6 11.2144 67.0354 6.6024 73.4708 7.83585C81.1933 9.28382 85.5372 17.0599 82.6413 24.407C82.5876 24.6215 82.4268 24.7824 82.534 25.0505C82.8558 26.1231 83.2848 27.1957 83.8747 28.161C87.3606 23.3344 87.5751 16.0946 83.2848 10.5709C78.9409 4.99356 71.4866 3.17019 65.1584 6.17338C61.2436 8.05037 58.5622 11.0536 57.2215 15.1829C55.8271 19.3123 56.3634 23.2808 58.4013 27.142C57.0606 27.0348 55.8271 27.0348 54.5937 27.1957C45.8523 28.3219 39.8995 36.7951 41.8301 45.322C43.3854 52.1864 49.4454 57.013 56.5243 57.013C61.0827 57.013 64.8903 55.2433 67.8399 51.7574C68.0007 51.5429 68.2153 51.382 68.0544 51.0603C67.5717 50.1486 67.3036 49.1296 66.9818 48.1107C66.7137 48.218 66.66 48.4325 66.5528 48.5934C65.802 49.7732 64.8903 50.7921 63.7641 51.5965C59.9565 54.4925 54.6473 54.8142 50.357 52.3473C45.9059 49.7195 43.9216 45.6974 44.4579 40.6027C45.0478 34.7036 49.9816 30.1452 55.8271 29.8235C62.5307 29.4481 68.8588 35.0254 68.537 42.158C68.4834 43.016 68.3225 43.8204 68.4298 44.6249C68.966 50.4703 71.862 54.7606 77.1176 57.3884C77.4393 57.5493 77.6538 57.7638 77.7611 58.1392C78.1901 59.5335 78.6191 60.9279 79.1018 62.3222C79.2627 62.7512 79.2627 63.1802 79.1554 63.6093C78.7264 65.4326 78.2437 67.3096 77.922 69.1866C77.7075 70.3128 77.3321 70.7418 76.1522 70.9564C73.9535 71.3317 71.862 72.0289 69.985 73.4233C69.5023 73.745 69.0733 74.1204 68.8588 74.6567C78.6728 71.3854 88.4331 71.3317 98.1398 74.6567C97.7644 74.0132 97.1209 73.3696 95.9947 72.7797C94.3859 71.868 92.5625 71.3317 90.7391 70.9564C90.3101 70.8491 90.0956 70.7418 89.9883 70.2592C89.6666 68.2749 89.2375 66.2907 88.8621 64.3601C88.7549 63.8774 88.6476 63.3948 88.7549 62.8585C89.1839 61.196 89.6129 59.5335 89.9883 57.871C90.0956 57.442 90.2565 57.2275 90.6855 57.013C95.7266 54.0634 98.3544 49.6659 98.4616 43.8204C98.5689 36.956 103.985 31.6468 110.85 31.8077C118.626 32.0222 124.15 39.2084 122.326 46.77C121.146 51.5965 117.232 55.136 112.244 55.8332C107.042 56.5303 102.43 54.278 99.9632 49.7732C99.8559 49.5587 99.7487 49.3978 99.5878 49.1296C99.2124 50.0949 98.8906 51.0066 98.408 51.8111C98.0862 52.2937 98.2471 52.5618 98.5152 52.9372C102.055 57.442 106.613 59.4263 112.298 58.7827C119.269 57.9783 124.579 52.6155 125.383 45.6974C126.241 38.404 121.683 31.6468 114.55 29.6089ZM92.5625 52.0792C91.2754 53.6344 89.6129 54.6534 87.736 55.3505C87.4142 55.4578 87.2533 55.6187 87.1997 56.0477C86.9315 58.1928 86.6098 60.2843 86.3416 62.4295C86.1807 63.4484 86.5025 64.4673 86.6098 65.4863C86.7706 66.9879 86.9852 68.5431 87.1997 70.0447C87.2533 70.4201 87.2533 70.6346 86.717 70.581C84.84 70.3664 82.963 70.3664 81.086 70.5273C80.6034 70.5809 80.4961 70.4737 80.6034 69.991C80.9788 67.8459 81.3542 65.7544 81.676 63.6093C81.7832 62.8585 81.5151 62.1613 81.4078 61.4641C81.1397 59.8017 80.8715 58.1392 80.6034 56.4767C80.5498 56.0477 80.3889 55.7795 79.8526 55.6723C74.9724 54.2243 71.7011 50.0949 71.433 45.2148C71.1648 39.6911 73.8999 34.9181 78.4583 32.9875C79.9062 32.344 81.5151 32.0758 83.2848 32.0758C88.3259 32.1831 92.1871 34.3282 94.2786 38.9939C96.3701 43.5523 95.8875 48.0571 92.5625 52.0792Z" fill="#89C340"/>
<path fill-rule="evenodd" clip-rule="evenodd" d="M14.9622 77.7666C12.0663 77.4984 9.22401 77.713 6.32809 77.6593C5.20189 77.6593 4.71924 78.2492 4.71924 79.3754C4.71924 82.5395 4.71924 85.7036 4.71924 88.8676C4.71924 92.0853 4.71924 95.303 4.71924 98.5207C4.71924 99.5933 5.20189 100.183 6.27446 100.183C9.27764 100.183 12.3345 100.398 15.3913 100.076C18.3945 99.7542 20.915 98.5207 22.7383 96.0538C24.4008 93.8014 24.9371 91.2273 24.8835 88.4922C24.8298 82.6468 20.7541 78.2492 14.9622 77.7666ZM20.5396 93.1043C19.3598 95.8929 17.2146 97.3409 14.2651 97.7163C12.3345 97.9844 10.3502 97.7699 8.36596 97.8772C7.88331 97.8772 7.93694 97.6091 7.93694 97.2873C7.93694 94.4986 7.93694 91.7099 7.93694 88.9213C7.93694 86.1862 7.93694 83.3976 7.93694 80.6625C7.93694 80.3944 7.82968 80.0726 8.31233 80.0726C10.4575 80.1262 12.6026 79.9117 14.6941 80.2871C18.2336 80.9307 20.6468 83.3976 21.1295 86.9906C21.5049 89.0822 21.3976 91.12 20.5396 93.1043Z" fill="#89C340"/>
<path fill-rule="evenodd" clip-rule="evenodd" d="M120.235 98.3063C119.913 97.9309 119.591 97.6628 119.216 97.341C116.642 94.9813 114.067 92.6217 111.332 90.1012C111.815 90.1012 112.083 90.1012 112.351 90.1012C114.014 90.0475 115.623 89.833 117.178 89.0822C120.396 87.527 121.361 82.2178 118.036 79.6436C116.695 78.6247 115.14 77.9812 113.477 77.7667C110.796 77.4449 108.115 77.6594 105.433 77.6594C104.414 77.6594 103.932 78.2493 103.932 79.3219C103.932 82.7541 103.932 86.1327 103.932 89.5649C103.932 92.6217 103.932 95.6785 103.932 98.7353C103.932 99.3252 104.093 99.8079 104.629 100.13C105.862 100.827 107.257 100.076 107.257 98.6281C107.257 96.0539 107.257 93.5334 107.257 90.9592C107.257 90.7983 107.149 90.5838 107.364 90.4229C107.793 90.7983 108.168 91.1737 108.597 91.5491C111.547 94.2842 114.55 96.9656 117.5 99.7006C118.09 100.237 118.787 100.559 119.591 100.344C120.61 99.9688 120.878 99.1107 120.235 98.3063ZM107.686 88.0633C107.31 88.0633 107.257 87.8488 107.31 87.5806C107.31 86.4008 107.31 85.1674 107.31 83.9875C107.31 82.8077 107.31 81.6815 107.31 80.5017C107.31 80.1799 107.364 80.019 107.739 80.019C109.402 80.0727 111.118 79.9118 112.78 80.1263C113.477 80.1799 114.121 80.3944 114.765 80.7162C117.285 82.0569 117.231 84.6847 116.266 86.3472C115.569 87.5806 114.228 87.9024 112.941 88.0097C111.171 88.0633 109.402 88.0097 107.686 88.0633Z" fill="#F38521"/>
<path fill-rule="evenodd" clip-rule="evenodd" d="M100.875 17.6496C100.928 17.4351 101.089 17.1669 100.821 17.006C100.607 16.8452 100.392 16.9524 100.231 17.0597C99.9094 17.2206 99.6412 17.2206 99.2658 17.0597C98.9441 16.9524 98.6759 16.8988 98.3541 16.8988C95.7264 16.7915 93.2595 19.2584 93.3667 21.8862C93.4204 23.4951 94.6002 24.514 96.209 24.2459C96.9598 24.1386 97.6034 23.8168 98.1396 23.2269C98.4078 24.0314 98.7295 24.2995 99.5876 24.2995C100.017 24.2995 100.446 24.1922 100.875 23.9777C102.108 23.3342 102.859 22.2616 103.395 21.0818C104.897 17.7568 103.073 14.3783 99.4803 13.7884C96.3163 13.2521 92.8841 15.0218 91.3825 17.9177C90.2563 20.0629 89.9881 22.2616 91.2216 24.4604C92.7232 27.0345 95.9409 28.1071 98.9441 27.0345C99.963 26.6591 100.928 26.2301 101.679 25.4257C101.84 25.2648 102.055 24.9967 101.786 24.7285C101.572 24.4604 101.304 24.514 101.089 24.6749C100.928 24.7822 100.767 24.8894 100.607 24.9967C99.7485 25.5329 98.8368 25.962 97.8715 26.1765C95.351 26.7128 93.0449 25.4257 92.1869 23.0124C91.3288 20.4919 92.6696 17.2206 95.1901 15.6653C96.5308 14.8609 97.9788 14.5928 99.4803 14.9682C100.982 15.3436 101.947 16.3625 102.269 17.8641C102.644 19.6338 102.269 21.2963 100.982 22.637C100.66 22.9588 100.231 23.3878 99.7485 23.1197C99.2658 22.7979 99.6412 22.2616 99.7485 21.8862C100.07 20.4383 100.499 19.0439 100.875 17.6496ZM98.9977 19.2584C98.7832 20.0092 98.6223 20.8137 98.2469 21.5645C97.9788 22.1544 97.6034 22.637 97.0134 22.9052C95.78 23.4414 94.8683 22.8515 94.9219 21.5108C94.9756 19.7411 96.1554 18.2931 97.657 18.025C97.8179 17.9714 97.9788 17.9714 98.1933 17.9714C99.2122 18.0786 99.3195 18.2395 98.9977 19.2584Z" fill="#F38521"/>
<path fill-rule="evenodd" clip-rule="evenodd" d="M116.749 41.0852C115.194 39.7981 113.585 38.511 112.029 37.2776C111.386 36.7949 110.742 36.8485 110.206 37.5457C108.168 40.0662 106.184 42.5331 104.146 45.0537C103.556 45.7508 103.663 46.3944 104.361 46.9843C105.862 48.1641 107.31 49.3439 108.812 50.5774C109.563 51.1673 110.152 51.1673 110.796 50.4165C112.834 47.896 114.818 45.4291 116.856 42.9085C117.071 42.6404 117.178 42.4259 117.178 42.0505C117.178 41.6215 117.017 41.2997 116.749 41.0852ZM109.402 49.9875C107.846 48.754 106.291 47.4669 104.79 46.2871C104.361 45.9653 104.629 45.6972 104.843 45.4291C105.058 45.0537 105.272 45.2146 105.54 45.4291C107.042 46.6625 108.597 47.896 110.099 49.1294C110.26 49.2367 110.421 49.3439 110.474 49.5584C110.421 49.9338 109.723 50.2556 109.402 49.9875ZM115.301 43.4984C113.906 45.2682 112.458 47.0379 111.064 48.8076C110.85 49.0758 110.742 49.1294 110.474 48.8613C108.973 47.6278 107.417 46.3944 105.862 45.1609C105.433 44.8392 105.433 44.6246 105.755 44.1956C107.149 42.5331 108.49 40.817 109.831 39.1009C110.099 38.7792 110.26 38.7792 110.581 39.0473C112.137 40.3344 113.692 41.5678 115.247 42.8549C115.354 42.9622 115.515 43.0158 115.515 43.2303C115.462 43.2839 115.354 43.3912 115.301 43.4984ZM115.891 42.694C115.676 42.8549 115.569 42.5868 115.408 42.4795C113.853 41.2461 112.351 40.0126 110.796 38.7792C110.581 38.6183 110.313 38.4574 110.635 38.1356C110.903 37.8675 111.118 37.5457 111.547 37.9211C112.619 38.8328 113.746 39.6908 114.818 40.6025C115.247 40.9243 115.676 41.2997 116.105 41.6215C116.266 41.7287 116.373 41.836 116.32 42.1041C116.32 42.3186 116.105 42.5331 115.891 42.694Z" fill="#F38521"/>
<path fill-rule="evenodd" clip-rule="evenodd" d="M87.5749 40.2807C87.2531 40.2271 87.0923 40.1198 86.985 39.9053C86.8777 39.6908 86.8777 39.4227 87.0923 39.2082C87.6822 38.6183 88.2721 37.9747 88.9156 37.4384C89.1838 37.2239 89.5055 37.2239 89.72 37.4921C89.9882 37.7066 90.0418 38.0283 89.8273 38.2965C89.2374 38.94 88.5402 39.5299 87.9503 40.1735C87.8431 40.2271 87.6822 40.2271 87.5749 40.2807Z" fill="#F38521"/>
<path fill-rule="evenodd" clip-rule="evenodd" d="M84.0891 37.0091C84.0891 37.3845 84.0891 37.7063 84.0891 38.0281C84.0891 38.4571 83.8746 38.7253 83.4455 38.7253C83.0165 38.7253 82.802 38.4571 82.802 38.0281C82.802 37.2237 82.802 36.4729 82.802 35.6684C82.802 35.2394 83.0701 35.0249 83.4455 35.0249C83.8209 35.0249 84.0891 35.293 84.0891 35.7221C84.0891 36.1511 84.0891 36.5801 84.0891 37.0091Z" fill="#F38521"/>
<path fill-rule="evenodd" clip-rule="evenodd" d="M80.1205 39.5301C80.1205 39.8519 79.9596 40.0128 79.7451 40.1737C79.5306 40.3345 79.2625 40.2809 79.048 40.12C78.4044 39.5301 77.8145 38.8866 77.2246 38.2967C77.0101 38.0822 77.0101 37.7604 77.2246 37.5459C77.4391 37.3314 77.7073 37.1705 77.9754 37.385C78.7262 37.9749 79.3697 38.6721 80.0133 39.4229C80.1205 39.4229 80.1205 39.5301 80.1205 39.5301Z" fill="#F38521"/>
<path fill-rule="evenodd" clip-rule="evenodd" d="M107.793 47.8422C107.739 47.9495 107.685 48.0567 107.578 48.0031C107.364 47.9495 107.203 47.7886 107.149 47.5741C107.149 47.4668 107.203 47.3596 107.364 47.4132C107.525 47.4668 107.685 47.6277 107.793 47.8422Z" fill="#F38521"/>
<path fill-rule="evenodd" clip-rule="evenodd" d="M113.048 39.6372C113.37 39.959 113.799 40.1199 114.067 40.4953C114.174 40.6561 113.96 40.817 113.799 40.6561C113.477 40.4416 113.209 40.1735 112.887 39.9053C112.834 39.8517 112.78 39.7445 112.887 39.6908C112.941 39.6908 112.995 39.6908 113.048 39.6372Z" fill="#F38521"/>
<path fill-rule="evenodd" clip-rule="evenodd" d="M88.1111 45.1611C88.1648 42.8551 86.5559 40.8708 84.2499 40.3346C82.0511 39.8519 79.7451 41.0317 78.7798 43.1232C77.9218 45.0539 78.4044 46.77 79.7451 48.2715C80.2814 48.8615 80.5496 49.505 80.4959 50.3631C80.4423 50.953 80.4959 51.4892 80.4959 52.0792C80.5496 52.9372 81.0858 53.5271 81.9439 53.5807C82.3729 53.5807 82.8019 53.5807 83.1773 53.5807C83.5527 53.5807 83.9818 53.5807 84.3572 53.5807C85.3225 53.5271 85.8588 52.9908 85.8588 52.0255C85.8588 51.4892 85.9124 50.8993 85.8588 50.3631C85.8051 49.5586 86.0733 48.9151 86.6095 48.3252C87.4676 47.4135 88.0575 46.3946 88.1111 45.1611ZM84.518 52.5618C83.9281 52.5618 83.3918 52.5618 82.8019 52.5618C82.4802 52.5618 82.212 52.5618 81.8903 52.5618C81.6221 52.5082 81.4612 52.2937 81.4612 52.0792C81.4612 51.7574 81.7294 51.8646 81.9439 51.8646C82.3729 51.8646 82.8019 51.8646 83.231 51.8646C83.66 51.8646 84.0354 51.8646 84.4644 51.8646C84.6253 51.8646 84.9471 51.7038 84.9471 52.0792C85.0007 52.3473 84.7862 52.5618 84.518 52.5618ZM84.6253 50.8993C84.1426 50.8993 83.7136 50.8993 83.231 50.8993C82.7483 50.8993 82.2657 50.8993 81.783 50.8993C81.5149 50.8993 81.4076 50.7921 81.4076 50.5776C81.4076 50.3631 81.4612 50.2022 81.7294 50.2022C82.6947 50.2022 83.66 50.2022 84.6253 50.2022C84.8934 50.2022 84.9471 50.3094 84.9471 50.5776C85.0007 50.8457 84.8934 50.8993 84.6253 50.8993ZM85.108 49.0223C85.0543 49.2369 84.8398 49.2369 84.6789 49.2369C84.1963 49.2369 83.7136 49.2369 83.0165 49.2369C82.1584 49.3977 81.2467 49.3441 80.8177 48.057C80.7104 47.7353 80.335 47.4671 80.1205 47.199C78.9943 45.6974 78.9943 44.0349 80.1742 42.6406C81.3003 41.2462 83.231 40.8172 84.8398 41.5144C86.5559 42.2652 88.1648 44.7857 86.395 47.1454C85.9124 47.7353 85.3225 48.2715 85.108 49.0223Z" fill="#F38521"/>
<path fill-rule="evenodd" clip-rule="evenodd" d="M64.8365 41.8898C64.5684 40.7099 63.9248 39.7446 63.3349 38.7793C62.4769 37.385 61.3507 36.2588 59.9563 35.3471C58.562 34.4354 55.7197 35.2935 55.9342 37.2241C55.9879 37.5995 55.7197 37.7604 55.4516 37.9213C54.4863 38.5112 53.521 39.0475 52.6093 39.6374C52.2875 39.8519 52.0194 39.8519 51.644 39.7446C49.9815 39.1547 48.2654 40.3882 48.2654 42.1579C48.2654 43.8204 48.8017 45.322 49.5525 46.7699C50.1424 47.8425 50.7323 48.8614 51.644 49.6659C52.8774 50.6848 54.379 50.2021 54.808 48.7005C54.9689 48.1643 54.9153 47.628 54.9689 47.1453C54.9689 45.6974 54.9689 45.6437 55.2907 45.2683C56.3096 44.0885 57.6503 43.3377 59.1519 42.9087C59.581 42.7478 60.01 42.8551 60.439 43.1232C61.0825 43.5522 61.8333 43.874 62.5841 44.0885C64.0321 44.5175 65.1047 43.0159 64.8365 41.8898ZM63.7103 43.0696C63.2813 43.445 62.7986 43.3913 62.316 43.1232C61.8333 42.9087 61.3507 42.6942 60.9217 42.426C60.2245 41.9434 59.4737 41.9434 58.6693 42.2115C57.114 42.7478 55.7733 43.6059 54.6471 44.7857C54.0572 45.4292 54.1645 46.18 54.1645 46.8236C54.1645 47.4135 54.2181 47.9497 54.0572 48.4324C53.7891 49.4513 52.931 49.7195 52.1802 49.0223C51.2686 48.1643 50.6787 47.0381 50.0887 45.9655C49.5525 45.0002 49.2307 43.9276 49.0698 42.8014C48.9089 41.8898 49.2307 41.1926 49.9815 40.6563C50.4105 40.3345 50.8932 40.2273 51.3758 40.4954C51.9657 40.8172 52.502 40.7099 53.0383 40.3345C54.0572 39.691 55.0225 39.1011 56.0415 38.5112C56.5241 38.243 56.7387 37.8676 56.7923 37.2777C56.8995 36.0443 58.2402 35.3471 59.3664 35.8834C60.7071 36.5805 61.6725 37.6531 62.4769 38.8866C63.0132 39.7446 63.5494 40.549 63.9248 41.5144C64.1394 42.1043 64.193 42.6405 63.7103 43.0696Z" fill="#F38521"/>
<path fill-rule="evenodd" clip-rule="evenodd" d="M53.0384 43.1766C52.8775 42.9621 52.7703 42.6403 52.3949 42.9621C52.0731 43.2302 51.8586 43.1766 51.6977 42.8012C51.5368 42.3721 51.2687 42.533 51.0005 42.6939C50.7324 42.8548 50.4643 43.0157 50.786 43.3375C51.1078 43.7129 50.9469 43.9274 50.5715 44.0883C50.4106 44.1419 50.2497 44.2491 50.4106 44.4636C50.5715 44.6782 50.5715 44.9463 50.8933 45.0536C51.0005 44.9999 51.1078 44.9463 51.2151 44.8927C51.4832 44.6782 51.6441 44.7318 51.805 45.0536C51.9659 45.429 52.1804 45.429 52.5021 45.2144C52.7703 45.0536 53.0384 44.8927 52.7167 44.5173C52.4485 44.1955 52.6094 44.0346 52.8775 43.8737C53.3602 43.6592 53.1993 43.3911 53.0384 43.1766ZM52.663 43.6592C52.234 43.8737 52.0731 44.1419 52.4485 44.5173C52.5558 44.6245 52.6094 44.7318 52.3949 44.8927C52.234 44.9999 52.1267 44.9463 52.0195 44.7854C51.805 44.3028 51.5368 44.2491 51.1078 44.5709C51.0005 44.6782 50.8397 44.7318 50.7324 44.5173C50.6251 44.3564 50.6788 44.2491 50.8397 44.1419C51.0005 43.981 51.3223 43.981 51.3223 43.6592C51.2687 43.4983 51.1614 43.3911 51.1078 43.2838C51.0005 43.1229 50.9469 43.0157 51.1614 42.9084C51.3223 42.8012 51.4296 42.8548 51.5368 43.0157C51.7513 43.4447 52.0195 43.6056 52.3949 43.2302C52.5558 43.1229 52.663 43.0693 52.7703 43.2838C52.8775 43.4447 52.8239 43.6056 52.663 43.6592Z" fill="#F38521"/>
<path fill-rule="evenodd" clip-rule="evenodd" d="M58.4549 39.1548C58.0259 39.1548 57.6505 39.4229 57.7041 39.9056C57.7041 40.3882 58.0259 40.6028 58.4549 40.6028C58.9375 40.6028 59.1521 40.3346 59.2057 39.852C59.1521 39.4766 58.8839 39.1548 58.4549 39.1548ZM58.4013 40.3882C58.1331 40.3346 57.9722 40.1737 57.9722 39.9056C57.9722 39.5838 58.1868 39.4229 58.4549 39.4766C58.723 39.4766 58.8839 39.6374 58.8839 39.9056C58.8839 40.2274 58.6694 40.3882 58.4013 40.3882Z" fill="#F38521"/>
<path fill-rule="evenodd" clip-rule="evenodd" d="M60.1173 39.4761C59.6347 39.4224 59.3665 39.7442 59.3129 40.1732C59.2593 40.6023 59.5274 40.924 60.0101 40.9777C60.4927 41.0313 60.7609 40.7631 60.8145 40.2269C60.8681 39.7978 60.5464 39.5297 60.1173 39.4761ZM60.0637 40.7095C59.7956 40.7095 59.6347 40.5486 59.6347 40.2269C59.6883 39.9587 59.7956 39.7442 60.0637 39.7442C60.3855 39.7442 60.4927 39.9587 60.5464 40.2269C60.5464 40.5486 60.3319 40.7095 60.0637 40.7095Z" fill="#F38521"/>
<path fill-rule="evenodd" clip-rule="evenodd" d="M58.9909 37.4922C58.4547 37.4922 58.1865 37.7603 58.1865 38.1894C58.1865 38.6184 58.401 38.9402 58.8837 38.9402C59.3663 38.9402 59.6881 38.672 59.6881 38.1894C59.6881 37.814 59.3663 37.5458 58.9909 37.4922ZM58.8837 38.7256C58.5619 38.7256 58.401 38.5111 58.4547 38.243C58.5083 37.9748 58.6692 37.814 58.9373 37.814C59.2591 37.814 59.3663 38.0821 59.42 38.2966C59.3127 38.5648 59.1518 38.7256 58.8837 38.7256Z" fill="#F38521"/>
<path fill-rule="evenodd" clip-rule="evenodd" d="M60.6535 37.8677C60.1709 37.8677 59.8491 38.1358 59.8491 38.6185C59.8491 39.1011 60.1173 39.3156 60.5999 39.3693C61.0826 39.3693 61.3507 39.1011 61.3507 38.6721C61.3507 38.2431 61.0826 37.8677 60.6535 37.8677ZM60.5463 39.1011C60.2245 39.1011 60.1173 38.8866 60.0636 38.6721C60.0636 38.404 60.2245 38.1894 60.5463 38.1894C60.8144 38.1894 60.9753 38.3503 61.0289 38.6185C60.9753 38.8866 60.8681 39.1011 60.5463 39.1011Z" fill="#F38521"/>
<path fill-rule="evenodd" clip-rule="evenodd" d="M54.0573 40.5491C53.7355 40.6563 53.2528 40.7636 53.1992 41.1926C53.1992 41.4071 53.3601 41.8362 53.6819 41.7289C54.0036 41.6217 54.379 41.4608 54.5936 41.0854C54.379 40.9245 54.379 40.4418 54.0573 40.5491ZM53.7355 41.4071C53.5746 41.4071 53.521 41.3535 53.521 41.2463C53.5746 41.0317 53.7891 40.9781 53.95 40.9245C54.0573 40.8709 54.1109 40.9245 54.1109 41.0317C54.1645 41.2999 53.8428 41.2999 53.7355 41.4071Z" fill="#F38521"/>
<path fill-rule="evenodd" clip-rule="evenodd" d="M56.2023 39.2616C55.8805 39.3688 55.3979 39.4761 55.3442 39.9587C55.3442 40.1196 55.5051 40.5486 55.7733 40.495C56.095 40.3878 56.5241 40.2269 56.6849 39.7978C56.5241 39.5833 56.4704 39.1543 56.2023 39.2616ZM55.8805 40.1196C55.7733 40.1732 55.7196 40.066 55.7196 40.0124C55.666 39.7442 55.9341 39.6906 56.1487 39.637C56.2559 39.5297 56.3095 39.6906 56.3632 39.7978C56.2559 39.9587 56.0414 40.0124 55.8805 40.1196Z" fill="#F38521"/>
<path fill-rule="evenodd" clip-rule="evenodd" d="M83.0164 45C83.8208 45 84.3571 45.1609 84.8398 45.429C85.0006 45.5363 85.376 45.5899 85.1615 45.9117C85.0007 46.1262 84.8398 46.6089 84.3035 46.2335C83.6599 45.7508 82.8555 45.7508 82.212 46.2335C81.7293 46.5552 81.5684 46.1798 81.4076 45.9653C81.0858 45.5899 81.5684 45.5363 81.7293 45.429C82.1583 45.1073 82.6946 45 83.0164 45Z" fill="#F38521"/>
</svg>
